<svg width="21" height="20" viewBox="0 0 21 20" fill="none" xmlns="http://www.w3.org/2000/svg">
<path d="M3.9375 17.5C3.35734 17.5 2.80094 17.2695 2.3907 16.8593C1.98047 16.4491 1.75 15.8927 1.75 15.3125V12.1875C1.75 11.9389 1.84877 11.7004 2.02459 11.5246C2.2004 11.3488 2.43886 11.25 2.6875 11.25C2.93614 11.25 3.1746 11.3488 3.35041 11.5246C3.52623 11.7004 3.625 11.9389 3.625 12.1875V15.3125C3.625 15.485 3.765 15.625 3.9375 15.625H17.0625C17.1454 15.625 17.2249 15.5921 17.2835 15.5335C17.3421 15.4749 17.375 15.3954 17.375 15.3125V12.1875C17.375 11.9389 17.4738 11.7004 17.6496 11.5246C17.8254 11.3488 18.0639 11.25 18.3125 11.25C18.5611 11.25 18.7996 11.3488 18.9754 11.5246C19.1512 11.7004 19.25 11.9389 19.25 12.1875V15.3125C19.25 15.8927 19.0195 16.4491 18.6093 16.8593C18.1991 17.2695 17.6427 17.5 17.0625 17.5H3.9375Z" fill="#136DC7"/>
<path d="M15.225 5.9C15.312 5.987 15.381 6.09028 15.4281 6.20396C15.4752 6.31763 15.4994 6.43946 15.4994 6.5625C15.4994 6.68554 15.4752 6.80737 15.4281 6.92104C15.381 7.03471 15.312 7.138 15.225 7.225C15.138 7.312 15.0347 7.38101 14.9211 7.4281C14.8074 7.47518 14.6856 7.49941 14.5625 7.49941C14.4395 7.49941 14.3177 7.47518 14.204 7.4281C14.0903 7.38101 13.987 7.312 13.9 7.225L11.4375 4.76375V11.875C11.4375 12.1236 11.3388 12.3621 11.1629 12.5379C10.9871 12.7137 10.7487 12.8125 10.5 12.8125C10.2514 12.8125 10.0129 12.7137 9.83711 12.5379C9.6613 12.3621 9.56253 12.1236 9.56253 11.875V4.76375L7.10003 7.225C7.01303 7.312 6.90974 7.38101 6.79607 7.4281C6.6824 7.47518 6.56056 7.49941 6.43753 7.49941C6.31449 7.49941 6.19266 7.47518 6.07898 7.4281C5.96531 7.38101 5.86203 7.312 5.77503 7.225C5.68803 7.138 5.61901 7.03471 5.57193 6.92104C5.52484 6.80737 5.50061 6.68554 5.50061 6.5625C5.50061 6.43946 5.52484 6.31763 5.57193 6.20396C5.61901 6.09028 5.68803 5.987 5.77503 5.9L9.83753 1.8375C9.92448 1.75042 10.0278 1.68134 10.1414 1.6342C10.2551 1.58707 10.377 1.56281 10.5 1.56281C10.6231 1.56281 10.7449 1.58707 10.8586 1.6342C10.9723 1.68134 11.0756 1.75042 11.1625 1.8375L15.225 5.9Z" fill="#136DC7"/>
</svg>
