<svg width="21" height="21" viewBox="0 0 21 21" fill="none" xmlns="http://www.w3.org/2000/svg">
<path d="M10.5 0.083374C4.75004 0.083374 0.083374 4.75004 0.083374 10.5C0.083374 16.25 4.75004 20.9167 10.5 20.9167C16.25 20.9167 20.9167 16.25 20.9167 10.5C20.9167 4.75004 16.25 0.083374 10.5 0.083374ZM7.67712 14.9688L3.93754 11.2292C3.53129 10.823 3.53129 10.1667 3.93754 9.76046C4.34379 9.35421 5.00004 9.35421 5.40629 9.76046L8.41671 12.7605L15.5834 5.59379C15.9896 5.18754 16.6459 5.18754 17.0521 5.59379C17.4584 6.00004 17.4584 6.65629 17.0521 7.06254L9.14587 14.9688C8.75004 15.375 8.08337 15.375 7.67712 14.9688Z" fill="#0E2F71"/>
</svg>
