<svg width="21" height="18" viewBox="0 0 21 18" fill="none" xmlns="http://www.w3.org/2000/svg">
<path d="M2.65629 17.8751H18.3438C19.948 17.8751 20.948 16.1355 20.1459 14.7501L12.3021 1.198C11.5 -0.187419 9.50004 -0.187419 8.69796 1.198L0.854212 14.7501C0.0521283 16.1355 1.05213 17.8751 2.65629 17.8751ZM10.5 10.5834C9.92713 10.5834 9.45838 10.1147 9.45838 9.54175V7.45842C9.45838 6.8855 9.92713 6.41675 10.5 6.41675C11.073 6.41675 11.5417 6.8855 11.5417 7.45842V9.54175C11.5417 10.1147 11.073 10.5834 10.5 10.5834ZM11.5417 14.7501H9.45838V12.6667H11.5417V14.7501Z" fill="#0E2F71"/>
</svg>
